HIERARCHY
ROOT Hips
{
	OFFSET 0.000000 0.000000 0.000000
	CHANNELS 6 Xposition Yposition Zposition Zrotation Yrotation Xrotation 
	JOINT LHipJoint
	{
		OFFSET 0.000000 0.000000 0.000000
		CHANNELS 3 Zrotation Yrotation Xrotation
		JOINT LeftUpLeg
		{
			OFFSET 1.363060 -1.794630 0.839290
			CHANNELS 3 Zrotation Yrotation Xrotation
			JOINT LeftLeg
			{
				OFFSET 2.448110 -6.726130 0.000000
				CHANNELS 3 Zrotation Yrotation Xrotation
				JOINT LeftFoot
				{
					OFFSET 2.562200 -7.039590 0.000000
					CHANNELS 3 Zrotation Yrotation Xrotation
					JOINT LeftToeBase
					{
						OFFSET 0.157640 -0.433110 2.322550
						CHANNELS 3 Zrotation Yrotation Xrotation
						End Site
						{
							OFFSET 0.000000 0.000000 0.000000
						}
					}
				}
			}
		}
	}
	JOINT RHipJoint
	{
		OFFSET 0.000000 0.000000 0.000000
		CHANNELS 3 Zrotation Yrotation Xrotation
		JOINT RightUpLeg
		{
			OFFSET -1.305520 -1.794630 0.839290
			CHANNELS 3 Zrotation Yrotation Xrotation
			JOINT RightLeg
			{
				OFFSET -2.542530 -6.985550 0.000000
				CHANNELS 3 Zrotation Yrotation Xrotation
				JOINT RightFoot
				{
					OFFSET -2.568260 -7.056230 0.000000
					CHANNELS 3 Zrotation Yrotation Xrotation
					JOINT RightToeBase
					{
						OFFSET -0.164730 -0.452590 2.363150
						CHANNELS 3 Zrotation Yrotation Xrotation
						End Site
						{
							OFFSET 0.000000 0.000000 0.000000
						}
					}
				}
			}
		}
	}
	JOINT LowerBack
	{
		OFFSET 0.000000 0.000000 0.000000
		CHANNELS 3 Zrotation Yrotation Xrotation
		JOINT Spine
		{
			OFFSET 0.028270 2.035590 -0.193380
			CHANNELS 3 Zrotation Yrotation Xrotation
			JOINT Spine1
			{
				OFFSET 0.056720 2.048850 -0.042750
				CHANNELS 3 Zrotation Yrotation Xrotation
				JOINT Neck
				{
					OFFSET 0.000000 0.000000 0.000000
					CHANNELS 3 Zrotation Yrotation Xrotation
					JOINT Neck1
					{
						OFFSET -0.054170 1.746240 0.172020
						CHANNELS 3 Zrotation Yrotation Xrotation
						JOINT Head
						{
							OFFSET 0.104070 1.761360 -0.123970
							CHANNELS 3 Zrotation Yrotation Xrotation
							End Site
							{
								OFFSET 0.000000 0.000000 0.000000
							}
						}
					}
				}
				JOINT LeftShoulder
				{
					OFFSET 0.000000 0.000000 0.000000
					CHANNELS 3 Zrotation Yrotation Xrotation
					JOINT LeftArm
					{
						OFFSET 3.362410 1.200890 -0.311210
						CHANNELS 3 Zrotation Yrotation Xrotation
						JOINT LeftForeArm
						{
							OFFSET 4.983000 -0.000000 -0.000000
							CHANNELS 3 Zrotation Yrotation Xrotation
							JOINT LeftHand
							{
								OFFSET 3.483560 -0.000000 -0.000000
								CHANNELS 3 Zrotation Yrotation Xrotation
								JOINT LeftFingerBase
								{
									OFFSET 0.000000 0.000000 0.000000
									CHANNELS 3 Zrotation Yrotation Xrotation
									JOINT LeftHandIndex1
									{
										OFFSET 0.715260 -0.000000 -0.000000
										CHANNELS 3 Zrotation Yrotation Xrotation
										End Site
										{
											OFFSET 0.000000 0.000000 0.000000
										}
									}
								}
								JOINT LThumb
								{
									OFFSET 0.000000 0.000000 0.000000
									CHANNELS 3 Zrotation Yrotation Xrotation
									End Site
									{
										OFFSET 0.000000 0.000000 0.000000
									}
								}
							}
						}
					}
				}
				JOINT RightShoulder
				{
					OFFSET 0.000000 0.000000 0.000000
					CHANNELS 3 Zrotation Yrotation Xrotation
					JOINT RightArm
					{
						OFFSET -3.136600 1.374050 -0.404650
						CHANNELS 3 Zrotation Yrotation Xrotation
						JOINT RightForeArm
						{
							OFFSET -5.241900 -0.000000 -0.000000
							CHANNELS 3 Zrotation Yrotation Xrotation
							JOINT RightHand
							{
								OFFSET -3.444170 -0.000000 -0.000000
								CHANNELS 3 Zrotation Yrotation Xrotation
								JOINT RightFingerBase
								{
									OFFSET 0.000000 0.000000 0.000000
									CHANNELS 3 Zrotation Yrotation Xrotation
									JOINT RightHandIndex1
									{
										OFFSET -0.622530 -0.000000 -0.000000
										CHANNELS 3 Zrotation Yrotation Xrotation
										End Site
										{
											OFFSET 0.000000 0.000000 0.000000
										}
									}
								}
								JOINT RThumb
								{
									OFFSET 0.000000 0.000000 0.000000
									CHANNELS 3 Zrotation Yrotation Xrotation
									End Site
									{
										OFFSET 0.000000 0.000000 0.000000
									}
								}
							}
						}
					}
				}
			}
		}
	}
}
MOTION
Frames: 4
Frame Time: 0.008333
11.215689 17.734818 34.765240 -176.564652 -5.699377 -173.626657 -3.588242 0.059832 1.871455 13.731150 -18.253074 4.335216 -0.971789 1.293931 -0.563770 7.479599 -8.434448 -4.294341 8.419200 16.419100 54.058900 2.549018 -0.266983 0.648883 4.817368 27.288305 18.056383 3.374529 -0.505127 -1.699476 0.790444 -19.495751 -48.751412 -3.514500 -11.484700 33.932500 2.057995 -0.293139 -6.292004 2.740053 -1.500167 -5.839762 -6.971737 -0.352706 -0.715772 -6.562708 -0.025807 -11.893675 15.123097 -0.743785 15.887887 4.555100 0.825200 4.581700 1.383263 -10.100127 0.541921 -82.639939 7.034857 21.552424 2.264689 -8.287550 -0.514888 -0.664254 0.824735 -0.048531 22.208975 -10.048548 -4.556100 -7.125000 0.000000 0.000000 -2.962900 18.198300 1.891900 -5.914162 11.311675 7.221222 -36.810382 13.136243 -77.984046 -3.929461 14.515894 -1.117413 6.452935 7.056587 17.647342 -21.397969 -29.283754 16.220100 7.125000 0.000000 0.000000 13.195400 -69.968400 -7.924200 
11.213515 17.739889 34.756754 -176.033907 -5.741995 -173.672851 -3.415607 0.069314 1.871389 14.366703 -17.297941 3.902756 -0.842461 1.209907 -0.527124 7.602491 -8.795015 -3.350879 8.548000 16.507900 54.513500 2.601586 -0.278208 0.644692 5.490507 27.639536 18.091221 3.426317 -0.577053 -1.505224 0.647290 -19.280414 -49.070960 -3.476300 -11.428800 33.740100 2.755090 -0.266858 -6.441576 2.798740 -1.540447 -5.881204 -7.089749 -0.383111 -0.922893 -5.625717 0.034992 -10.706697 14.056030 -0.726296 15.049412 3.952000 0.687400 3.923600 1.455662 -10.079085 0.583983 -82.684342 7.388001 21.554124 2.514949 -8.625468 -0.525791 -0.591537 0.783091 -2.372542 20.385596 -10.892459 -4.442300 -7.125000 0.000000 0.000000 -4.344800 17.489400 2.846400 -6.014492 11.307892 7.263786 -37.599978 13.262996 -79.677481 -3.824959 14.625719 -1.065292 6.301418 7.006408 17.666715 -21.249282 -29.049737 15.929800 7.125000 0.000000 0.000000 13.224300 -69.601300 -7.833500 
11.210721 17.741545 34.747025 -175.666991 -5.807909 -173.672809 -3.286193 0.082346 1.867118 14.837532 -16.633327 3.552111 -0.744473 1.153213 -0.489600 7.748868 -9.170726 -2.663160 8.604900 16.546600 54.713400 2.637328 -0.281796 0.635245 5.921968 27.881671 18.081327 3.461405 -0.610064 -1.418148 0.640127 -19.373214 -49.186721 -3.536500 -11.516600 34.042600 3.218645 -0.313320 -6.641570 2.840543 -1.661400 -5.934849 -7.216813 -0.469498 -1.130534 -4.338879 0.043300 -9.534281 12.601350 -0.684783 14.072492 3.475400 0.548000 3.558700 1.524843 -10.031086 0.631694 -82.692081 7.530258 21.444152 2.624610 -8.741501 -0.515316 -0.543572 0.721940 -4.892812 18.518601 -11.030673 -4.029200 -7.125000 0.000000 0.000000 -5.707400 17.554400 3.738900 -6.072767 11.352141 7.327357 -38.366792 13.467693 -81.375145 -3.710716 14.716715 -1.012055 6.262212 7.006882 17.679602 -21.532286 -29.232955 16.162500 7.125000 0.000000 0.000000 13.098300 -69.851700 -7.831200 
11.205443 17.743305 34.737296 -175.434074 -5.883685 -173.660412 -3.201528 0.087233 1.864250 15.142537 -16.101404 3.267196 -0.687854 1.118682 -0.423109 7.669806 -9.062971 -2.143954 8.660000 16.583900 54.906800 2.652015 -0.272357 0.616967 6.132490 27.907872 17.989195 3.482830 -0.651872 -1.307548 0.714216 -19.566641 -49.075561 -3.617100 -11.632700 34.444600 3.613836 -0.237078 -6.876350 2.860923 -1.615833 -5.964002 -7.392109 -0.481674 -1.279111 -3.050850 -0.158361 -8.584846 11.152121 -0.896027 13.531530 2.510200 0.354200 2.949700 1.593710 -9.934784 0.677308 -82.657706 7.439528 21.748194 2.514919 -8.577897 -0.481134 -0.497137 0.686242 -6.503127 16.932469 -11.147248 -3.683600 -7.125000 0.000000 0.000000 -6.860700 17.593000 4.498700 -6.132828 11.415915 7.341258 -38.963070 13.400536 -82.318232 -3.677282 14.818498 -0.974493 6.288636 7.011454 17.658708 -21.964165 -29.362986 16.529500 7.125000 0.000000 0.000000 12.630300 -70.129600 -7.626400 
